<svg width="17" height="16" viewBox="0 0 17 16" fill="none" xmlns="http://www.w3.org/2000/svg">
<path d="M14.57 6.12L15.13 5.56C15.4222 5.26781 15.6539 4.92092 15.8121 4.53915C15.9702 4.15739 16.0516 3.74823 16.0516 3.33501C16.0516 2.92179 15.9702 2.51261 15.8121 2.13084C15.6539 1.74908 15.4222 1.40219 15.13 1.11C14.8378 0.817809 14.4909 0.586035 14.1091 0.427902C13.7274 0.26977 13.3182 0.18837 12.905 0.18837C12.4917 0.18837 12.0826 0.269769 11.7008 0.427902C11.319 0.586035 10.9722 0.817809 10.68 1.11L10.12 1.67L14.57 6.12Z" fill="#FF227C"/>
<path d="M9.02008 2.78L2.06006 9.73L4.85004 10.28L10.6901 4.45L9.02008 2.78Z" fill="#FF227C"/>
<path d="M0.659912 15.58C0.754594 15.676 0.872566 15.7458 1.00226 15.7826C1.13195 15.8194 1.26892 15.8219 1.3999 15.79L5.04993 14.88L4.43994 11.8L1.35992 11.19L0.449951 14.84C0.41802 14.971 0.420532 15.108 0.457336 15.2377C0.494141 15.3674 0.563943 15.4853 0.659912 15.58Z" fill="#FF227C"/>
<path d="M11.79 5.55L5.95996 11.39L6.51001 14.18L13.47 7.22L11.79 5.55Z" fill="#FF227C"/>
</svg>
