<svg width="194" height="50" viewBox="0 0 194 50" fill="none" xmlns="http://www.w3.org/2000/svg">
<path fill-rule="evenodd" clip-rule="evenodd" d="M16.48 10V9.9C16.55 9.60206 16.577 9.2956 16.56 8.99V8.89C16.6551 8.63065 16.7026 8.35624 16.7 8.08V8C16.7028 7.97341 16.7028 7.94659 16.7 7.92C16.83 7.35 16.96 6.77 17.12 6.2C17.23 5.8 17.34 5.4 17.46 5C17.52 4.79 17.59 4.58 17.67 4.38C17.75 4.18 17.67 4.22 17.81 4.25C18.1794 4.32091 18.554 4.36104 18.93 4.37C19.49 4.43 20.05 4.47 20.61 4.51C20.8687 4.54706 21.1313 4.54706 21.39 4.51H21.57C21.8184 4.59026 22.0822 4.61082 22.34 4.57H22.55C22.8237 4.64293 23.1087 4.66329 23.39 4.63H23.56C23.56 4.63 23.63 4.63 23.67 4.63C24.2 4.63 24.73 4.7 25.27 4.7C25.4265 4.69189 25.5834 4.69189 25.74 4.7C26.1723 4.74127 26.6076 4.74127 27.04 4.7C27.12 4.7 27.21 4.7 27.21 4.56L27.31 4.49C28.9349 3.01261 31.044 2.18036 33.24 2.15C33.2806 2.15452 33.3215 2.1451 33.356 2.12329C33.3905 2.10149 33.4166 2.06859 33.43 2.03C33.5 2.03 33.53 2.03 33.54 1.94C33.612 1.92954 33.6806 1.90212 33.74 1.86C34.0572 1.692 34.3928 1.56113 34.74 1.47C34.9591 1.4282 35.1735 1.36455 35.38 1.28H35.55C35.9499 1.21589 36.3553 1.19243 36.76 1.21C37.0632 1.21228 37.3628 1.27696 37.64 1.4C37.73 1.4 37.79 1.53 37.9 1.53L38.01 1.64C38.0071 1.6599 38.0071 1.6801 38.01 1.7C38.0871 1.81852 38.1363 1.95308 38.1536 2.09345C38.1709 2.23381 38.156 2.37627 38.11 2.51C38.0137 2.86674 37.8582 3.20477 37.65 3.51C37.65 3.51 37.59 3.6 37.65 3.65C37.6687 3.66832 37.6938 3.67859 37.72 3.67859C37.7462 3.67859 37.7713 3.66832 37.79 3.65C37.9702 3.60535 38.1545 3.57856 38.34 3.57H38.44C38.49 3.63 38.57 3.62 38.63 3.64C38.9841 3.72424 39.3219 3.86613 39.63 4.06C39.8 4.17 39.92 4.32 40.09 4.43C40.1546 4.61585 40.2047 4.80642 40.24 5V5.09C40.13 5.28 40.07 5.49 39.94 5.67C39.8295 5.79206 39.7385 5.93034 39.67 6.08C39.6601 6.07943 39.6502 6.08131 39.6412 6.08548C39.6323 6.08965 39.6245 6.09598 39.6185 6.1039C39.6126 6.11182 39.6087 6.12109 39.6072 6.13088C39.6057 6.14067 39.6067 6.15067 39.61 6.16C39.52 6.28 39.54 6.37 39.69 6.43C39.8071 6.47812 39.9274 6.51822 40.05 6.55C40.3341 6.6396 40.6087 6.75683 40.87 6.9L41.01 7.04C41.0075 7.06661 41.0075 7.09339 41.01 7.12C41.0887 7.24523 41.1409 7.38529 41.1632 7.53151C41.1856 7.67772 41.1777 7.82697 41.14 7.97C41.0812 8.15902 40.9935 8.33779 40.88 8.5C40.73 8.74 40.53 8.94 40.4 9.18C40.27 9.42 40.3 9.63 40.57 9.76L40.75 9.83C40.9089 9.86883 41.057 9.94292 41.1834 10.0468C41.3097 10.1507 41.4111 10.2816 41.48 10.43C41.6303 10.8193 41.6303 11.2507 41.48 11.64C41.48 11.75 41.34 11.84 41.35 11.97C41.3149 11.9866 41.2846 12.0118 41.2618 12.0433C41.2391 12.0747 41.2247 12.1115 41.22 12.15V12.21C41.0811 12.3017 40.9506 12.4054 40.83 12.52H40.72C40.2709 12.7533 39.8025 12.9474 39.32 13.1C39.153 13.1286 38.9933 13.1897 38.85 13.28H38.79C38.7741 13.2734 38.7571 13.27 38.74 13.27C38.7228 13.27 38.7058 13.2734 38.69 13.28L37.53 13.56C37.3137 13.5845 37.1018 13.6383 36.9 13.72H36.8C36.6547 13.6914 36.5053 13.6914 36.36 13.72C36.24 13.72 36.09 13.72 35.99 13.81H35.88C35.7545 13.7857 35.6255 13.7857 35.5 13.81C35.03 13.81 34.55 13.89 34.08 13.91C33.6214 13.9119 33.1634 13.8785 32.71 13.81L31.38 13.64C30.7481 13.5844 30.135 13.3971 29.58 13.09C29.4901 13.016 29.3838 12.9646 29.27 12.94C29.1964 12.8449 29.095 12.775 28.98 12.74H28.92C28.6674 12.4941 28.4003 12.2637 28.12 12.05C28.084 12.0402 28.046 12.0402 28.01 12.05C27.4 12.05 26.8 11.99 26.19 11.93C25.87 11.93 25.54 11.93 25.19 11.93C24.8716 11.9097 24.5519 11.9332 24.24 12H24.04C23.7829 11.9127 23.5107 11.8787 23.24 11.9H23.11C22.9913 11.8448 22.8605 11.8207 22.73 11.83C22.04 11.83 21.35 11.77 20.66 11.71C19.78 11.64 18.89 11.62 18.01 11.52C17.76 11.52 17.5 11.52 17.25 11.45C17.1145 11.4274 16.9888 11.3649 16.889 11.2705C16.7893 11.1761 16.72 11.054 16.69 10.92C16.624 10.6605 16.5772 10.3964 16.55 10.13L16.48 10Z" fill="#FAB018"/>
<path fill-rule="evenodd" clip-rule="evenodd" d="M12.99 20.13C12.99 20.13 12.91 20.13 12.89 20.18C12.27 20.85 11.61 21.48 10.97 22.12C10.8364 22.2422 10.6668 22.318 10.4866 22.336C10.3064 22.3541 10.1252 22.3134 9.97003 22.22C9.2904 21.791 8.69131 21.2461 8.20003 20.61C8.02032 20.3689 7.82666 20.1385 7.62003 19.92C7.45709 19.6399 7.27323 19.3724 7.07003 19.12C6.63003 18.51 6.25003 17.87 5.85003 17.24C5.85003 17.18 5.79003 17.14 5.85003 17.08C6.32003 16.67 6.74003 16.21 7.19003 15.76C8.06003 14.89 8.94003 14.02 9.80003 13.13C10.66 12.24 11.33 11.53 12.03 10.67C12.1189 10.5729 12.1833 10.4561 12.2181 10.3291C12.2529 10.2022 12.257 10.0688 12.23 9.94C12.1813 9.60844 12.1813 9.27155 12.23 8.94C12.3671 7.43261 12.8682 5.98104 13.69 4.71C13.8469 4.454 14.0314 4.21592 14.24 4C14.2573 3.98122 14.2707 3.95915 14.2793 3.93509C14.2879 3.91104 14.2915 3.8855 14.29 3.86C14.3009 3.46442 14.3857 3.07437 14.54 2.71C14.8316 1.97056 15.2589 1.29222 15.8 0.71C15.9887 0.512521 16.2082 0.347029 16.45 0.22C16.5509 0.158666 16.663 0.118012 16.7797 0.100403C16.8964 0.0827947 17.0155 0.088584 17.1299 0.117434C17.2444 0.146284 17.352 0.197619 17.4464 0.268448C17.5409 0.339278 17.6203 0.428188 17.68 0.530001C17.8586 0.814008 17.9998 1.11987 18.1 1.44V1.55C18.15 1.68 18.22 1.66 18.28 1.55C18.3867 1.34937 18.533 1.17247 18.71 1.03C19.1272 0.621799 19.6627 0.355811 20.24 0.270001C20.4509 0.252608 20.661 0.311772 20.8318 0.436657C21.0026 0.561543 21.1227 0.743787 21.17 0.950001C21.245 1.16223 21.3052 1.37942 21.35 1.6C21.3576 1.66978 21.3854 1.73582 21.43 1.79C21.43 1.9 21.54 1.93 21.64 1.87L22.36 1.45C22.498 1.35879 22.6554 1.30112 22.8196 1.28162C22.9839 1.26212 23.1504 1.28131 23.3059 1.33768C23.4614 1.39404 23.6015 1.48601 23.7151 1.60623C23.8287 1.72644 23.9126 1.87157 23.96 2.03C24.06 2.3 24.1 2.58 24.17 2.86C24.1959 2.96825 24.2363 3.07252 24.29 3.17C24.42 3.4 24.51 3.43 24.76 3.33L25.15 3.15C25.3251 3.056 25.5241 3.01627 25.7218 3.03586C25.9195 3.05545 26.1069 3.13348 26.26 3.26C26.5763 3.4735 26.8146 3.78402 26.9391 4.14475C27.0635 4.50548 27.0674 4.89689 26.95 5.26C26.9299 5.34887 26.9299 5.44113 26.95 5.53V5.58C26.8212 5.84415 26.7142 6.1184 26.63 6.4C26.3966 6.97681 26.1329 7.54093 25.84 8.09C25.67 8.41 25.47 8.71 25.33 9.09C25.2924 9.11287 25.2615 9.14525 25.2405 9.18388C25.2194 9.22251 25.2089 9.26601 25.21 9.31C25.0896 9.42436 24.9913 9.55996 24.92 9.71C24.768 9.90193 24.6372 10.1098 24.53 10.33C24.405 10.417 24.3133 10.5439 24.27 10.69C24.0889 10.8363 23.9421 11.0207 23.84 11.23L23.72 11.36C23.687 11.37 23.6569 11.388 23.6325 11.4125C23.6081 11.4369 23.5901 11.467 23.58 11.5C23.4039 11.6214 23.2514 11.7739 23.13 11.95L23 12.07C22.7469 12.2181 22.5259 12.4153 22.35 12.65L22.27 12.73C22.19 12.73 22.16 12.78 22.12 12.83C21.7602 13.1915 21.3491 13.4981 20.9 13.74C20.3021 14.0306 19.66 14.2199 19 14.3C18.8844 14.301 18.7702 14.3265 18.6651 14.3747C18.5599 14.423 18.4662 14.4929 18.39 14.58C18.2459 14.7517 18.0923 14.9153 17.93 15.07L16.6 16.45C16.6 16.45 16.53 16.51 16.54 16.57C16.47 16.57 16.44 16.57 16.45 16.67L16.22 16.9C15.9639 17.1126 15.7233 17.3432 15.5 17.59C15.45 17.64 15.36 17.68 15.36 17.78C15.29 17.78 15.26 17.78 15.26 17.88L15.17 17.97C15.1434 17.9744 15.1191 17.9877 15.1009 18.0076C15.0828 18.0276 15.0719 18.0531 15.07 18.08C15.01 18.08 14.98 18.13 14.95 18.17L13.39 19.78C13.39 19.78 13.3 19.84 13.32 19.91L12.99 20.13Z" fill="#01AAAF"/>
<path fill-rule="evenodd" clip-rule="evenodd" d="M4.60998 13.18C4.60998 13 4.60998 12.81 4.60998 12.63C4.63304 12.482 4.68692 12.3404 4.76815 12.2145C4.84937 12.0887 4.95613 11.9812 5.0815 11.8992C5.20688 11.8172 5.34808 11.7624 5.49596 11.7385C5.64385 11.7145 5.79512 11.7218 5.93999 11.76C6.23575 11.8384 6.52631 11.9353 6.80998 12.05H6.93999C7.34999 12.14 7.47998 12.05 7.50998 11.62C7.50286 11.4934 7.50286 11.3666 7.50998 11.24C7.57537 10.9942 7.71714 10.7756 7.91485 10.6156C8.11256 10.4557 8.35598 10.3626 8.60998 10.35C8.96394 10.3032 9.32396 10.355 9.65037 10.4997C9.97678 10.6444 10.2569 10.8763 10.46 11.17C11.0802 11.9307 11.6228 12.7515 12.08 13.62C12.7087 14.6891 13.2216 15.8221 13.61 17C13.7671 17.6257 13.8873 18.2602 13.97 18.9C14.096 19.4615 14.1631 20.0346 14.17 20.61C14.1359 21.2245 13.9902 21.8277 13.74 22.39C13.66 22.57 13.59 22.75 13.5 22.93C13.4439 23.0782 13.4439 23.2418 13.5 23.39C13.9733 25.4367 14.4467 27.4833 14.92 29.53C15.23 30.9 15.55 32.27 15.83 33.65C15.8696 33.8055 15.8591 33.9695 15.7998 34.1186C15.7405 34.2677 15.6356 34.3942 15.5 34.48C15.1587 34.713 14.7746 34.8762 14.37 34.96C13.6531 35.1253 12.9241 35.2323 12.19 35.28C11.19 35.36 10.19 35.37 9.18999 35.35C9.05999 35.35 8.90999 35.35 8.79999 35.35C8.68999 35.35 8.79999 35.11 8.72999 34.99C8.50999 34.0033 8.29665 33.0033 8.08998 31.99C7.80998 30.67 7.52998 29.36 7.17998 28.06C7.04423 27.4639 6.86372 26.8789 6.63999 26.31C6.62469 26.2637 6.59989 26.2211 6.56717 26.1849C6.53445 26.1488 6.49454 26.1198 6.44998 26.1C5.98027 25.8962 5.54771 25.6157 5.16998 25.27C3.91527 24.2016 2.96345 22.8222 2.40998 21.27C2.32924 21.051 2.18685 20.8599 1.99998 20.72C1.61768 20.3792 1.29935 19.9728 1.05998 19.52C0.758541 19.0157 0.532801 18.4699 0.389986 17.9C0.285201 17.6117 0.234353 17.3067 0.239984 17C0.276501 16.7776 0.393415 16.5763 0.568537 16.4343C0.743659 16.2924 0.9648 16.2197 1.18999 16.23C1.52857 16.2345 1.86498 16.285 2.18999 16.38C2.24999 16.38 2.32999 16.43 2.36999 16.38C2.40999 16.33 2.36999 16.27 2.36999 16.22C2.17505 15.7659 2.12952 15.2616 2.23998 14.78C2.26943 14.5679 2.32312 14.3599 2.39998 14.16C2.4313 14.0393 2.4863 13.9261 2.56179 13.8269C2.63728 13.7277 2.73175 13.6445 2.8397 13.5821C2.94766 13.5198 3.06693 13.4795 3.19059 13.4637C3.31425 13.4479 3.43981 13.4568 3.55998 13.49C3.84545 13.5579 4.12608 13.6448 4.39998 13.75C4.56998 13.8 4.64998 13.75 4.65998 13.58C4.66998 13.41 4.60998 13.31 4.60998 13.18Z" fill="#2F459C"/>
<path fill-rule="evenodd" clip-rule="evenodd" d="M4.23998 38.47C4.24915 38.2904 4.2989 38.1152 4.3855 37.9576C4.4721 37.8 4.5933 37.664 4.73998 37.56C4.9272 37.3967 5.12792 37.2495 5.33998 37.12C5.37226 37.1056 5.39923 37.0815 5.41716 37.051C5.43508 37.0205 5.44306 36.9852 5.43998 36.95C5.43998 36.86 5.34998 36.87 5.28998 36.85C4.98686 36.7749 4.70802 36.6234 4.47998 36.41C4.22083 36.182 3.99823 35.9156 3.81998 35.62C3.73652 35.5082 3.67739 35.3801 3.64639 35.244C3.61539 35.108 3.61321 34.967 3.63998 34.83C3.68776 34.6721 3.76866 34.5262 3.8773 34.402C3.98594 34.2779 4.11981 34.1783 4.26998 34.11C4.43998 34 4.63998 33.94 4.79998 33.83C4.95998 33.72 4.99998 33.62 4.85998 33.48L4.23998 32.86C4.13778 32.7592 4.0585 32.6375 4.00752 32.5033C3.95654 32.369 3.93507 32.2254 3.94455 32.0821C3.95404 31.9389 3.99427 31.7993 4.0625 31.673C4.13074 31.5467 4.22537 31.4365 4.33998 31.35C4.62093 31.1595 4.91499 30.989 5.21998 30.84C5.34243 30.7704 5.45369 30.6828 5.54998 30.58C5.5763 30.5548 5.59724 30.5245 5.61155 30.491C5.62586 30.4575 5.63324 30.4214 5.63324 30.385C5.63324 30.3486 5.62586 30.3125 5.61155 30.279C5.59724 30.2455 5.5763 30.2152 5.54998 30.19C5.46912 30.0697 5.37884 29.956 5.27998 29.85C5.12442 29.7031 5.02007 29.5102 4.98227 29.2996C4.94447 29.089 4.97522 28.8718 5.06998 28.68C5.22615 28.2441 5.54515 27.8857 5.95998 27.68C6.21768 27.5643 6.49753 27.5063 6.77998 27.51C6.98557 27.48 7.1944 27.48 7.39998 27.51C7.65998 27.57 7.91998 27.56 8.16998 27.6C8.41998 27.64 8.94998 27.73 9.33998 27.81C9.72998 27.89 10.34 28.04 10.79 28.18C11.24 28.32 11.67 28.45 12.1 28.61C12.7133 28.8257 13.3058 29.0968 13.87 29.42C14.42 29.75 14.95 30.13 15.51 30.42C16.1933 30.828 16.7586 31.407 17.15 32.1C17.3418 32.4171 17.5026 32.752 17.63 33.1C17.74 33.41 18.03 33.5 18.27 33.65C18.8 33.96 19.34 34.25 19.88 34.55L21.5 35.45L23.69 36.7L25.82 38C26.22 38.23 26.59 38.49 27 38.7C27.1308 38.7498 27.2451 38.8351 27.3299 38.9465C27.4148 39.0578 27.4667 39.1907 27.48 39.33C27.4941 39.562 27.4565 39.7943 27.37 40.01C26.9603 40.9505 26.4107 41.8237 25.74 42.6C25.47 42.93 25.19 43.26 24.92 43.6C24.65 43.94 24.24 44.34 23.92 44.72C23.83 44.83 23.73 44.97 23.6 45.01C23.47 45.05 23.37 44.89 23.25 44.82L20.84 43.41L18.84 42.29C18.15 41.88 17.43 41.51 16.72 41.13C16.35 40.93 15.97 40.75 15.58 40.59C15.5033 40.5542 15.4196 40.5357 15.335 40.5357C15.2503 40.5357 15.1667 40.5542 15.09 40.59C14.5854 40.8059 14.0477 40.9344 13.5 40.97C12.9842 41.0126 12.4658 41.0126 11.95 40.97C11.2733 40.9262 10.6031 40.8122 9.94998 40.63C9.5176 40.5172 9.09598 40.3667 8.68998 40.18C8.62892 40.156 8.56105 40.156 8.49998 40.18C8.07654 40.2542 7.64343 40.2542 7.21998 40.18C6.70671 40.1131 6.20318 39.9856 5.71998 39.8C5.22698 39.639 4.77839 39.365 4.40998 39C4.30054 38.8448 4.24121 38.6599 4.23998 38.47Z" fill="#9029A2"/>
<path fill-rule="evenodd" clip-rule="evenodd" d="M25.77 35.72C26.2272 35.7248 26.6827 35.7751 27.13 35.87L27.7 36.02C27.8101 36.0581 27.9298 36.0581 28.04 36.02L30.17 35.11L33.32 33.77L36.4 32.48L37.82 31.9C37.9479 31.8453 38.0891 31.8294 38.226 31.8543C38.3629 31.8792 38.4895 31.9438 38.59 32.04C38.9148 32.3495 39.1645 32.7291 39.32 33.15C39.7694 34.2528 40.1045 35.3988 40.32 36.57C40.44 37.17 40.54 37.78 40.63 38.38C40.63 38.47 40.63 38.55 40.52 38.58C40.1781 38.679 39.8439 38.8027 39.52 38.95L37.73 39.68C37.19 39.9 36.67 40.14 36.13 40.34C35.2 40.7 34.3 41.12 33.39 41.53C32.9402 41.7169 32.5084 41.9445 32.1 42.21C32.056 42.2378 32.0183 42.2744 31.989 42.3174C31.9598 42.3604 31.9397 42.4089 31.93 42.46C31.8707 42.7264 31.78 42.9849 31.66 43.23C31.4543 43.6707 31.21 44.0923 30.93 44.49C30.5336 45.0388 30.0811 45.5449 29.58 46C29.0623 46.4811 28.4881 46.8975 27.87 47.24C27.7128 47.3126 27.5881 47.4408 27.52 47.6C27.3806 47.9016 27.1796 48.1707 26.93 48.39C26.4224 48.9099 25.835 49.3454 25.19 49.68C24.8767 49.8377 24.5383 49.9392 24.19 49.98C23.9622 49.9947 23.7375 49.9222 23.5611 49.7774C23.3847 49.6326 23.2699 49.4262 23.24 49.2C23.1818 48.8457 23.1818 48.4843 23.24 48.13C23.2488 48.0979 23.2467 48.0638 23.2341 48.033C23.2214 48.0022 23.1989 47.9766 23.17 47.96C23.1 47.96 23.08 47.96 23.03 48.01C22.8084 48.188 22.5481 48.3113 22.27 48.37C21.8632 48.4426 21.4468 48.4426 21.04 48.37C20.8157 48.3418 20.6076 48.2385 20.4496 48.0768C20.2917 47.9152 20.1931 47.7048 20.17 47.48C20.1864 47.1443 20.2265 46.8101 20.29 46.48C20.29 46.3 20.29 46.21 20.05 46.22C19.81 46.23 19.46 46.32 19.16 46.33C19.0247 46.3481 18.8871 46.3383 18.7557 46.3012C18.6243 46.2641 18.5019 46.2005 18.3961 46.1143C18.2902 46.0281 18.2031 45.9212 18.1402 45.8C18.0772 45.6789 18.0397 45.5462 18.03 45.41C18.0056 45.1031 18.0395 44.7943 18.13 44.5C18.1654 44.3728 18.1855 44.2419 18.19 44.11C18.19 43.76 18.01 43.6 17.66 43.65C17.4643 43.6782 17.2656 43.6782 17.07 43.65C16.832 43.6098 16.6198 43.4767 16.48 43.28C16.2608 42.9719 16.143 42.6031 16.143 42.225C16.143 41.8469 16.2608 41.4781 16.48 41.17C16.8816 40.6469 17.3265 40.1585 17.81 39.71C18.5428 39.0287 19.3286 38.4067 20.16 37.85C20.8802 37.3334 21.6589 36.9038 22.48 36.57C23.1 36.33 23.74 36.13 24.36 35.91C24.8148 35.7629 25.2924 35.6986 25.77 35.72Z" fill="#A3224F"/>
<path fill-rule="evenodd" clip-rule="evenodd" d="M37.43 26.18V26.11C37.6121 25.7056 37.7626 25.2877 37.88 24.86V24.8C38.004 24.5167 38.1109 24.2261 38.2 23.93C38.3053 23.6888 38.3857 23.4375 38.44 23.18L38.88 21.89L39.03 21.41C39.13 21.41 39.11 21.31 39.14 21.25C39.4591 20.3085 39.8262 19.3839 40.24 18.48C40.4628 18.3688 40.7118 18.3204 40.96 18.34C41.5051 18.4044 42.0375 18.5493 42.54 18.77C42.84 18.88 43.12 19.05 43.43 19.14C43.51 19.26 43.64 19.27 43.75 19.33C44.09 19.5 44.4 19.72 44.75 19.86C44.761 19.8698 44.7753 19.8753 44.79 19.8753C44.8048 19.8753 44.819 19.8698 44.83 19.86C44.9267 19.9709 45.0564 20.048 45.2 20.08C45.2969 20.1858 45.4217 20.2621 45.56 20.3C45.6994 20.42 45.854 20.5209 46.02 20.6C46.0844 20.6784 46.1719 20.7344 46.27 20.76C46.3459 20.8464 46.4376 20.9177 46.54 20.97C46.64 21.03 46.67 21.09 46.62 21.19C46.4585 21.4904 46.3342 21.8095 46.25 22.14V22.2C46.1584 22.3591 46.091 22.531 46.05 22.71C45.9363 22.9313 45.8522 23.1667 45.8 23.41V23.48C45.75 23.48 45.74 23.56 45.73 23.61C45.59 23.97 45.46 24.34 45.33 24.7C45 25.63 44.65 26.55 44.33 27.49C44.11 28.18 43.87 28.87 43.71 29.57C43.71 29.73 43.61 29.91 43.71 30.06C43.9653 30.4392 44.1641 30.8535 44.3 31.29C44.4495 31.7233 44.5632 32.1681 44.64 32.62C44.7104 33.0401 44.7538 33.4643 44.77 33.89C44.8053 34.7469 44.7245 35.6047 44.53 36.44C44.4856 36.549 44.4856 36.671 44.53 36.78C44.6521 37.0509 44.72 37.343 44.73 37.64C44.7837 38.1085 44.7837 38.5815 44.73 39.05C44.7831 39.7154 44.6768 40.3839 44.42 41C44.3598 41.1198 44.2744 41.2251 44.1696 41.3088C44.0649 41.3925 43.9433 41.4525 43.8132 41.4848C43.683 41.5171 43.5475 41.5209 43.4157 41.4959C43.284 41.4709 43.1593 41.4177 43.05 41.34L42.65 41.08L42.57 41C42.49 40.83 42.32 40.75 42.22 40.6C42.12 40.45 42.07 40.6 42.06 40.67C42.05 40.74 42.06 40.82 42.06 40.89C41.9031 41.5648 41.4909 42.1525 40.91 42.53C40.7567 42.665 40.5593 42.7395 40.355 42.7395C40.1507 42.7395 39.9534 42.665 39.8 42.53L39.5 42.3C39.409 42.0944 39.2801 41.9078 39.12 41.75C39.01 41.63 38.91 41.65 38.81 41.75C38.71 41.85 38.51 42.21 38.35 42.42C38.2466 42.5861 38.0968 42.7182 37.919 42.8C37.7413 42.8817 37.5434 42.9096 37.35 42.88C37.1635 42.839 36.987 42.7613 36.8307 42.6514C36.6745 42.5416 36.5417 42.4017 36.44 42.24C36.3119 42.0395 36.1645 41.8519 36 41.68C35.83 41.53 35.62 41.45 35.45 41.68C35.28 41.91 35.27 41.89 35.18 42C35.035 42.1996 34.8213 42.3385 34.58 42.39C34.3623 42.4205 34.1405 42.4035 33.93 42.34C33.6427 42.2654 33.3803 42.1159 33.1695 41.9069C32.9587 41.6978 32.8071 41.4367 32.73 41.15C32.59 40.5704 32.5195 39.9762 32.52 39.38C32.52 38.93 32.52 38.48 32.52 38.03C32.52 37.58 32.57 37.03 32.64 36.53C32.72 35.8568 32.8403 35.1889 33 34.53C33.0525 34.1381 33.1327 33.7505 33.24 33.37C33.42 32.94 33.61 32.52 33.79 32.1C33.9873 31.5434 34.2635 31.0181 34.61 30.54C35.0664 29.9969 35.6189 29.5427 36.24 29.2C36.4054 29.1158 36.5336 28.9733 36.6 28.8C36.81 28.18 37.04 27.56 37.25 26.95C37.29 26.69 37.35 26.43 37.43 26.18Z" fill="#FE0000"/>
<path fill-rule="evenodd" clip-rule="evenodd" d="M36.62 20.94C36.62 20.61 36.62 20.28 36.67 19.94C36.6751 19.8187 36.6399 19.6992 36.57 19.6L34.75 16.81L33.24 14.47L33.07 14.21C33.07 14.21 33.02 14.15 33.07 14.12C33.12 14.09 33.14 14.12 33.18 14.12C33.22 14.12 33.55 14.12 33.73 14.17C34.5299 14.1754 35.329 14.1185 36.12 14C36.72 13.91 37.32 13.8 37.91 13.67C38.8064 13.4779 39.6785 13.1861 40.51 12.8C40.67 12.72 40.74 12.74 40.83 12.88C41.1533 13.3885 41.5038 13.8792 41.88 14.35C41.9437 14.4408 42.0272 14.5159 42.1242 14.5696C42.2213 14.6234 42.3292 14.6543 42.44 14.66C43.0036 14.7233 43.5537 14.8752 44.07 15.11C45.2354 15.5838 46.2932 16.2878 47.18 17.18C47.4363 17.425 47.6737 17.6891 47.89 17.97C47.9247 18.0239 47.9782 18.0631 48.04 18.08C48.5023 18.2025 48.9322 18.4243 49.3 18.73C49.963 19.1943 50.5161 19.7985 50.92 20.5C51.1198 20.7924 51.1987 21.1508 51.14 21.5C51.1083 21.645 51.0416 21.78 50.9457 21.8933C50.8499 22.0066 50.7277 22.0947 50.59 22.15C50.2324 22.291 49.854 22.372 49.47 22.39C49.47 22.39 49.37 22.39 49.35 22.39C49.33 22.39 49.35 22.48 49.35 22.51C49.7228 22.8579 49.9632 23.3245 50.03 23.83C50.0909 24.1303 50.0909 24.4397 50.03 24.74C49.9867 24.9501 49.8728 25.139 49.7072 25.2754C49.5417 25.4119 49.3345 25.4876 49.12 25.49C48.86 25.49 48.6 25.49 48.34 25.49C48.08 25.49 48.08 25.56 48.14 25.76C48.2 25.96 48.26 26.13 48.33 26.32C48.4359 26.5393 48.4687 26.7868 48.4237 27.0261C48.3787 27.2654 48.2583 27.4841 48.08 27.65C47.7993 27.8788 47.4409 27.9899 47.08 27.96C46.827 27.9418 46.573 27.9418 46.32 27.96C46.05 27.96 45.94 28.12 45.98 28.39C46.02 28.66 46.08 28.75 46.1 28.93C46.1324 29.1336 46.1063 29.3422 46.0249 29.5316C45.9435 29.721 45.81 29.8834 45.64 30C45.3783 30.1951 45.0669 30.3126 44.7415 30.3391C44.4162 30.3657 44.0899 30.3001 43.8 30.15C42.8122 29.6334 41.8975 28.9878 41.08 28.23C40.4811 27.7036 39.9135 27.1426 39.38 26.55C38.7537 25.8619 38.2193 25.0955 37.79 24.27C37.54 23.79 37.25 23.34 37.02 22.85C36.7545 22.2483 36.6182 21.5976 36.62 20.94Z" fill="#E96202"/>
<path d="M60.06 24C60.0491 21.762 60.9141 19.6086 62.47 18C63.8621 16.5551 65.7365 15.6722 67.737 15.5192C69.7375 15.3662 71.7245 15.9537 73.32 17.17C74.756 18.3176 75.7606 19.918 76.17 21.71H73.76C73.3907 20.5612 72.6525 19.5664 71.66 18.88C70.6714 18.213 69.5025 17.8641 68.31 17.88C67.5299 17.8731 66.7572 18.0307 66.0421 18.3426C65.327 18.6545 64.6857 19.1136 64.16 19.69C63.0459 20.8503 62.4238 22.3965 62.4238 24.005C62.4238 25.6135 63.0459 27.1597 64.16 28.32C64.6857 28.8964 65.327 29.3555 66.0421 29.6674C66.7572 29.9793 67.5299 30.1369 68.31 30.13C69.5483 30.1542 70.7613 29.778 71.7685 29.0572C72.7757 28.3365 73.5233 27.3098 73.9 26.13H76.24C75.8179 27.9599 74.8017 29.5986 73.35 30.79C71.763 32.0349 69.7691 32.6437 67.7574 32.4976C65.7457 32.3515 63.8606 31.4611 62.47 30C60.9095 28.3944 60.0438 26.239 60.06 24Z" fill="#606060"/>
<path d="M79.54 24C79.5269 22.8545 79.744 21.7181 80.1787 20.6582C80.6133 19.5983 81.2564 18.6365 82.07 17.83C82.8594 16.9878 83.8159 16.3197 84.8784 15.8686C85.9408 15.4174 87.0858 15.1931 88.24 15.21C89.3901 15.1958 90.5309 15.4174 91.5921 15.8612C92.6533 16.3049 93.6123 16.9613 94.41 17.79C96.0308 19.4346 96.9394 21.6509 96.9394 23.96C96.9394 26.2691 96.0308 28.4854 94.41 30.13C93.6052 30.9463 92.6462 31.5946 91.5887 32.0371C90.5312 32.4795 89.3963 32.7074 88.25 32.7074C87.1037 32.7074 85.9688 32.4795 84.9113 32.0371C83.8538 31.5946 82.8948 30.9463 82.09 30.13C81.2777 29.3299 80.6336 28.3754 80.1957 27.3226C79.7578 26.2699 79.5348 25.1402 79.54 24ZM94.44 24C94.4556 23.1803 94.303 22.366 93.9917 21.6075C93.6804 20.849 93.217 20.1624 92.63 19.59C91.4604 18.4257 89.8762 17.7737 88.2258 17.7775C86.5755 17.7812 84.9943 18.4404 83.83 19.61C82.6657 20.7796 82.0137 22.3638 82.0175 24.0141C82.0212 25.6645 82.6804 27.2457 83.85 28.41C84.4204 28.9973 85.1028 29.4641 85.8569 29.7829C86.6109 30.1017 87.4213 30.2659 88.24 30.2659C89.0587 30.2659 89.869 30.1017 90.6231 29.7829C91.3772 29.4641 92.0596 28.9973 92.63 28.41C93.217 27.8376 93.6804 27.151 93.9917 26.3925C94.303 25.634 94.4556 24.8197 94.44 24Z" fill="#606060"/>
<path d="M103.02 32.4H100.58V15.52H102.46L110.68 27.4V15.52H113.09V32.4H111.16L103.01 20.61L103.02 32.4Z" fill="#606060"/>
<path d="M119.73 25.19V30H127.57V32.4H117.24V15.55H127.54V18H119.73V22.75H127.37V25.21L119.73 25.19Z" fill="#606060"/>
<path d="M130.8 24C130.797 21.7578 131.673 19.6038 133.24 18C134.632 16.5551 136.506 15.6722 138.507 15.5192C140.507 15.3662 142.494 15.9537 144.09 17.17C145.526 18.3176 146.531 19.918 146.94 21.71H144.53C144.161 20.5612 143.422 19.5664 142.43 18.88C141.441 18.213 140.272 17.8641 139.08 17.88C138.3 17.8731 137.527 18.0307 136.812 18.3426C136.097 18.6545 135.456 19.1136 134.93 19.69C133.816 20.8503 133.194 22.3965 133.194 24.005C133.194 25.6135 133.816 27.1597 134.93 28.32C135.456 28.8964 136.097 29.3555 136.812 29.6674C137.527 29.9793 138.3 30.1369 139.08 30.13C140.318 30.1542 141.531 29.778 142.538 29.0572C143.546 28.3365 144.293 27.3098 144.67 26.13H147.06C146.638 27.9599 145.622 29.5986 144.17 30.79C142.579 32.0492 140.575 32.6666 138.551 32.5203C136.528 32.3741 134.633 31.4748 133.24 30C131.668 28.3992 130.792 26.2432 130.8 24Z" fill="#606060"/>
<path d="M156.57 32.4H154.14V17.84H149.03V15.52H161.66V17.83H156.57V32.4Z" fill="#606060"/>
<path d="M174.92 32.4L173.3 28.13H166.45L164.81 32.4H162.24L169.02 15.31H170.8L177.58 32.4H174.92ZM169.92 19.19L167.39 25.84H172.45L169.92 19.19Z" fill="#606060"/>
<path d="M183.77 25V23.84H186.62C187.397 23.84 188.142 23.5313 188.692 22.9818C189.241 22.4323 189.55 21.6871 189.55 20.91C189.55 20.1329 189.241 19.3877 188.692 18.8382C188.142 18.2887 187.397 17.98 186.62 17.98H182.88V32.4H180.47V15.52H186.62C187.371 15.4767 188.122 15.5974 188.821 15.8738C189.521 16.1501 190.151 16.5753 190.67 17.12C191.618 18.1446 192.137 19.494 192.12 20.89C192.133 22.1026 191.727 23.2825 190.97 24.23C190.169 25.226 189.016 25.8772 187.75 26.05L193.08 32.39H189.92L183.77 25Z" fill="#606060"/>
</svg>
